<svg xmlns="http://www.w3.org/2000/svg" xmlns:xlink="http://www.w3.org/1999/xlink" width="78" height="95"><defs><path id="nr5oa" d="M750.69 352.89a8.94 8.94 0 0 0-6.44 3.19l-4 4.83v-43.85a6.52 6.52 0 1 0-13 0v27.22a1 1 0 0 1-1.05 1 1 1 0 0 1-1-1v-35.25a6.52 6.52 0 1 0-13 0v35.25a1 1 0 0 1-1.05 1 1 1 0 0 1-1-1v-29.23a6.52 6.52 0 0 0-13 0v29.21a1 1 0 0 1-.28.68 1 1 0 0 1-.67.28h-.18a1 1 0 0 1-1-1v-19.14a6.52 6.52 0 1 0-13 0v47.23a24 24 0 0 0 24 24h16.51a24 24 0 0 0 18.36-8.55l17-20.22a8.92 8.92 0 0 0-7.22-14.65z"/></defs><use fill="#fff" xlink:href="#nr5oa" transform="translate(-682 -302)"/></svg>