<svg width="23" height="31" xmlns="http://www.w3.org/2000/svg"><title>morreu</title><g id="Symbols" fill="none" fill-rule="evenodd"><g id="stats-casual" transform="translate(-201 -175)" fill-rule="nonzero" fill="#A1BE00"><path d="M222.974 186.687c.411-.957.7-1.888.7-2.39 0-5.135-4.887-9.297-11.548-9.297-6.145 0-11.126 4.162-11.126 9.296 0 1.066.215 2.09.61 3.043a4.751 4.751 0 0 1 .12 3.321c-.13.386-.198.79-.198 1.209 0 1.721 1.161 3.227 2.895 4.054.137.893.289 2.197.277 3.53a2.784 2.784 0 0 0 .687 1.858l3.267 3.737a2.786 2.786 0 0 0 2.097.952h3.221c.804 0 1.568-.347 2.097-.952l3.267-3.737c.45-.515.694-1.175.688-1.858-.012-1.32.137-2.612.272-3.505 1.765-.82 2.952-2.34 2.952-4.08 0-.517-.105-1.014-.299-1.48a4.758 4.758 0 0 1 .021-3.7zm-10.519 5.863c.156-.266 1.672 2.831 1.672 3.327a.897.897 0 0 1-1.672.45.896.896 0 0 1-1.672-.45c0-.496 1.517-3.593 1.672-3.327zm-8.26.5c-.69-1.033-.916-2.856-.34-3.752.732-1.14 4.33-1.5 5.64-.941 1.055.45 2.327.908 1.851 1.907-.302.634-1.371 2.118-1.988 2.593-1.31 1.01-4.123 1.753-5.164.193zm4.546 6.447a.228.228 0 0 1-.228.227h-.713a.228.228 0 0 1-.228-.227v-.632c0-.416.137-.821.389-1.153a.247.247 0 0 1 .392 0c.252.332.388.736.388 1.153v.632zm1.171.11a.228.228 0 0 1-.227.227h-.714a.228.228 0 0 1-.227-.228v-.632c0-.416.136-.82.388-1.152a.247.247 0 0 1 .392 0c.252.331.388.736.388 1.152v.632zm1.171.11a.228.228 0 0 1-.227.227h-.714a.228.228 0 0 1-.227-.228v-.632c0-.416.136-.82.388-1.152a.247.247 0 0 1 .392 0c.252.331.389.736.389 1.152v.632zm1.172.109a.228.228 0 0 1-.228.227h-.713a.228.228 0 0 1-.228-.227v-.632c0-.416.137-.82.388-1.152a.247.247 0 0 1 .393 0c.252.331.388.736.388 1.152v.632zm1.171 0a.228.228 0 0 1-.227.227h-.714a.228.228 0 0 1-.227-.227v-.632c0-.416.136-.82.388-1.152a.247.247 0 0 1 .392 0c.252.331.389.736.389 1.152v.632zm1.172-.11a.228.228 0 0 1-.228.228h-.714a.228.228 0 0 1-.227-.228v-.632c0-.416.136-.82.388-1.152a.247.247 0 0 1 .393 0c.252.331.388.736.388 1.152v.632zm1.17-.11a.228.228 0 0 1-.227.228h-.713a.228.228 0 0 1-.228-.228v-.632c0-.416.137-.82.389-1.152a.247.247 0 0 1 .392 0c.252.331.388.736.388 1.152v.632zm1.172-.11a.228.228 0 0 1-.227.228h-.714a.228.228 0 0 1-.227-.227v-.632c0-.416.136-.821.388-1.153a.247.247 0 0 1 .392 0c.252.332.389.736.389 1.153v.632zm3.504-6.446c-1.041 1.56-3.854.817-5.164-.193-.617-.476-1.686-1.959-1.988-2.593-.476-1 .796-1.458 1.85-1.907 1.31-.56 4.909-.2 5.641.94.576.897.35 2.72-.339 3.753z" id="morreu"/></g></g></svg>