<svg width="147" height="90" xmlns="http://www.w3.org/2000/svg"><title>ranked-qualify-icon@2x</title><g id="Page-1" fill="none" fill-rule="evenodd"><g id="ranked-qualify-icon@2x" fill="#EB8211" fill-rule="nonzero"><path d="M147 34.88c0-1.7-1.8-2.38-3.16-2.62l-28.38-4.14-12.72-25.8c-.5-1.08-1.46-2.32-2.76-2.32-1.3 0-2.26 1.24-2.78 2.32L86.08 24.87l6 .87c4.68.78 8.68 3.42 8.68 9.14 0 3.1-1.34 5.34-3.46 7.46L79.26 59.98l4.22 24.66 16.5-8.7 25.38 13.38c.68.4 1.46.68 2.26.68 1.64 0 2.32-1.36 2.32-2.84 0-.4 0-.74-.06-1.12l-4.86-28.36 20.52-20.08c.72-.74 1.46-1.7 1.46-2.72zm-52.94 0c0-1.7-1.82-2.38-3.18-2.62l-28.36-4.14L49.8 2.32C49.28 1.24 48.32 0 47.02 0c-1.3 0-2.26 1.24-2.76 2.32l-12.72 25.8-28.38 4.14c-1.4.24-3.16.92-3.16 2.62 0 1.02.74 1.98 1.42 2.72l20.56 20.08-4.86 28.36c-.06.38-.1.72-.1 1.12 0 1.48.72 2.84 2.36 2.84.8 0 1.54-.28 2.26-.68l25.38-13.38L72.4 89.32c.68.4 1.48.68 2.26.68 1.64 0 2.32-1.36 2.32-2.84 0-.4 0-.74-.06-1.12l-4.86-28.36L92.58 37.6c.74-.74 1.48-1.7 1.48-2.72z" id="Shape"/></g></g></svg>