<svg width="43" height="41" xmlns="http://www.w3.org/2000/svg"><title>ranked-challenge-icon@2x</title><defs><linearGradient x1="0%" y1="-11.267%" x2="100.415%" y2="99.711%" id="linearGradient-1"><stop stop-color="#92AA00" offset="0%"/><stop stop-color="#687900" offset="100%"/></linearGradient></defs><g id="Page-1" fill="none" fill-rule="evenodd"><g id="ranked-challenge-icon@2x" fill="url(#linearGradient-1)" fill-rule="nonzero"><path d="M43 15.888c0-.775-.827-1.085-1.447-1.188L28.58 12.814 22.766 1.06C22.534.57 22.094 0 21.5 0s-1.034.568-1.266 1.06l-5.815 11.754L1.447 14.7C.801 14.803 0 15.113 0 15.888c0 .465.336.905.646 1.24l9.406 9.146L7.83 39.192c-.026.18-.052.335-.052.516 0 .672.336 1.292 1.086 1.292.361 0 .697-.13 1.033-.31L21.5 34.593l11.603 6.097c.31.18.672.31 1.033.31.75 0 1.06-.62 1.06-1.292 0-.18 0-.336-.026-.516l-2.222-12.918 9.38-9.145c.336-.336.672-.776.672-1.24z" id="Star---FontAwesome"/></g></g></svg>