<svg height="41" width="43" xmlns="http://www.w3.org/2000/svg"><linearGradient id="a" x1="15.197%" y1="0%" y2="100%"><stop offset="0" stop-color="#2c97de"/><stop offset="1" stop-color="#1e6a9c"/></linearGradient><path d="M26.33 15.845L21.5 6.144l-4.83 9.7-10.736 1.552 7.778 7.514-1.844 10.651 9.632-5.029 9.632 5.03-1.844-10.649 1.292-1.251 6.471-6.269zm-15.132 23.58l-.017-.003a1.559 1.559 0 0 1-.002.098h.004l.007-.045.008-.05zm20.595-.09v.046l.002.009v-.02a.82.82 0 0 1-.002-.035zm0-.004a.287.287 0 0 0 0 .004zM43 15.786c0 .463-.336.899-.672 1.233l-9.38 9.086L35.17 38.94c.026.18.026.334.026.513 0 .668-.31 1.284-1.06 1.284-.361 0-.723-.129-1.033-.308L21.5 34.37 9.897 40.429c-.336.18-.672.308-1.033.308-.75 0-1.086-.616-1.086-1.284 0-.18.026-.333.052-.513l2.222-12.835L.646 17.02C.336 16.686 0 16.25 0 15.787c0-.77.801-1.078 1.447-1.18l12.972-1.874 5.815-11.68C20.466.565 20.906 0 21.5 0s1.034.565 1.266 1.052l5.815 11.68 12.972 1.874c.62.102 1.447.41 1.447 1.18z" fill="url(#a)"/></svg>