<svg width="91" height="166" xmlns="http://www.w3.org/2000/svg"><title>Group 15</title><g id="Symbols" fill="none" fill-rule="evenodd"><g id="Group-15" fill="#5A5454"><path d="M37.737 17.546c.704.624 1.17.644 1.17.644s.777 2.328.777 6.23c0 .52-.067 1.008-.187 1.467 1.938 1.766 6.871 5.064 13.173.464a5.65 5.65 0 0 1-.33-1.93c0-3.903.775-6.23.775-6.23s.468-.02 1.168-.644c.655-.579 1.48-1.93 1.636-3.288.16-1.359.625-2.79 0-2.932-.62-.14-1.323.358-1.323.358s.72-4.57.23-6.323c-.774-2.81-2.273-3.897-4.674-4.785-.92-.34-3.314-.572-3.314-.572s-.372-.011-.914 0c-.58-.011-.979.04-.979.04-.999.062-2.191.204-3.078.53-2.402.889-3.9 1.976-4.672 4.785-.487 1.753.23 6.324.23 6.324s-.702-.5-1.323-.358c-.622.144-.16 1.572 0 2.932.156 1.357.984 2.709 1.635 3.288" id="head"/><path d="M29.652 57.284v-.002c.012.064.057.291.115.62 3.307 2.547 16.661 11.302 31.567-.039v.003l.014-.085c-1.715-14.677-1.09-22.079-.665-24.88a52.434 52.434 0 0 1-5.661-2.042c-1.414-.606-2.512-1.554-3.028-2.798-6.169 3.915-10.996 1.108-12.894-.394-.433 1.439-1.61 2.521-3.168 3.192a56.987 56.987 0 0 1-4.333 1.66c1.312 5.624-1.093 20.038-1.947 24.765" id="chest"/><path d="M88.651 81.567c-1.773-.954-2.192-2.268-3.476-2.625-1.292-.357-4.19-.656-4.996-1.133-.804-.478-2.896-5.84-3.541-7.985-.646-2.146-.567-5.602-1.29-7.687-.724-2.086-2.577-4.471-3.46-6.854-.887-2.383-1.208-5.66-1.208-5.66-.482-1.907-.082-4.946.162-6.197.244-1.253.565-4.768-.805-6.735-1.37-1.968-4.108-2.92-6.685-3.517-.496-.115-1-.246-1.507-.384-.449 2.744-1.11 9.994.702 24.37.062-.316.104-.509.104-.509s.697 1.628.776 2.82c.08 1.19.813 3.86.813 3.86s1.936 4.648 3.946 8.403c2.015 3.753 4.348 6.615 4.348 6.615s1.695 2.623 1.93 3.933c.247 1.312 1.212 2.264 1.856 3.457.644 1.192 1.77 2.799 2.414 4.41.643 1.609 1.276 2.618 1.676 2.556.404-.06.725-.229.725-.963s-.832-3.662-.832-3.662 2.233 3.22 2.856 3.974c1.008 1.212 1.773 1.193 1.773 1.193s.62-.019.806-.418c.274-.58-.888-2.027-.888-2.027l1.21.933s.965.853 1.69.676c.725-.18.237-1.073.237-1.073s.725.237 1.294 0c.562-.24-.244-1.907-.968-3.04-.725-1.133-2.377-2.91-2.78-3.924-.405-1.014-.846-2.512-.443-2.571.401-.059 1.41.964 2.859 1.38 1.45.418 2.658.36 2.982 0 .324-.359-.507-.663-2.28-1.616" id="left-arm"/><path d="M14.578 86.596c.64-1.201 1.6-2.16 1.84-3.483.237-1.32 1.916-3.962 1.916-3.962s2.317-2.884 4.315-6.665c1.997-3.782 3.916-8.465 3.916-8.465s.725-2.689.803-3.89c.083-1.2.774-2.839.774-2.839l.005.023c.894-4.664 3.415-18.888 2.04-24.436a38.69 38.69 0 0 1-2.747.761c-2.56.602-5.275 1.561-6.634 3.543-1.36 1.982-1.04 5.522-.8 6.784.24 1.263.637 4.324.162 6.244 0 0-.321 3.304-1.2 5.703-.878 2.401-2.716 4.803-3.436 6.904-.718 2.102-.639 5.583-1.28 7.744-.639 2.16-2.714 7.565-3.514 8.044-.8.482-3.673.783-4.954 1.14-1.278.36-1.694 1.686-3.452 2.646-1.76.96-2.585 1.267-2.264 1.628.317.362 1.517.423 2.956 0 1.438-.42 2.44-1.45 2.838-1.391.401.06-.04 1.57-.438 2.59-.4 1.021-2.039 2.812-2.758 3.954-.719 1.141-1.517 2.82-.96 3.063.562.238 1.282 0 1.282 0s-.48.899.24 1.081c.72.178 1.678-.682 1.678-.682l1.2-.939s-1.15 1.457-.879 2.043c.185.4.8.42.8.42s.76.02 1.758-1.202c.62-.759 2.836-4.003 2.836-4.003s-.823 2.95-.823 3.69c0 .737.318.91.718.969.4.062 1.026-.954 1.665-2.575.637-1.623 1.758-3.242 2.397-4.442" id="right-arm"/><path d="M62.101 71.751c-.234-2.104-.778-6.062-.857-7.916-.056-1.352.269-3.393.45-4.403-15.19 11.527-28.8 2.628-32.17.04.182 1.023.497 3.03.441 4.363-.077 1.854-.623 5.812-.855 7.916-.167 1.503-.809 3.542-1.503 6.026 13.599.846 15.148 12.256 16.535 14.445l.03-.256s.96.131 1.427.124c.338.005.927-.06 1.233-.098l.167-.021c1.363-2.69 3.25-13.377 16.394-14.194-.2-.713-.392-1.385-.573-2.023l-.72-4.004z" id="stomach"/><path d="M27.74 80.01c13.12.822 14.616 11.915 15.954 14.043-.102.896-.475 4.135-.983 8.309-.604 4.932-1.67 5.303-2.045 9.633-.375 4.328-1.131 7.485-1.73 8.987-.601 1.503-1.465 2.954-1.465 5.172 0 1.66.308 4.388.16 6.794-.15 2.404-3.42 12.282-3.495 14.205-.07 1.926.604 5.35.9 6.313.302.964-.226 1.265-.525 2.406-.3 1.143-.3 3.847-.15 5.35.153 1.503.076 2.645-.447 3.667-.529 1.021-1.526.903-2.552 1.046-1.2.171-2.09-.05-4.873-.05-2.551 0-2.923-1.357-2.923-2.198 0-.525 1.424-2.044 2.175-2.825.748-.784 1.424-1.806 1.424-2.648 0-.838.372-2.225.674-4.386.298-2.164.3-3.43-.151-6.251-.448-2.829-2.849-14.09-2.624-18.838.224-4.75 1.741-7.748 1.576-10.702-.19-3.322-.672-4.029-1.047-9.019-.375-4.99-.65-4.269-.95-11.126-.293-6.667 1.353-10.75 2.294-14.785l.802-3.098z" id="right-lef"/><path d="M63.066 80.01c-13.122.822-14.617 11.915-15.955 14.043.102.896.475 4.135.983 8.309.604 4.932 1.67 5.303 2.045 9.633.375 4.328 1.13 7.485 1.73 8.987.601 1.503 1.465 2.954 1.465 5.172 0 1.66-.309 4.388-.16 6.794.149 2.404 3.42 12.282 3.495 14.205.07 1.926-.604 5.35-.9 6.313-.302.964.225 1.265.525 2.406.3 1.143.3 3.847.15 5.35-.154 1.503-.077 2.645.446 3.667.53 1.021 1.526.903 2.553 1.046 1.2.171 2.09-.05 4.873-.05 2.551 0 2.923-1.357 2.923-2.198 0-.525-1.425-2.044-2.176-2.825-.747-.784-1.423-1.806-1.423-2.648 0-.838-.372-2.225-.675-4.386-.297-2.164-.298-3.43.152-6.251.448-2.829 2.848-14.09 2.624-18.838-.224-4.75-1.742-7.748-1.576-10.702.189-3.322.671-4.029 1.047-9.019.375-4.99.65-4.269.95-11.126.293-6.667-1.354-10.75-2.295-14.785l-.801-3.098z" id="left-leg"/></g></g></svg>