<svg xmlns="http://www.w3.org/2000/svg" xmlns:xlink="http://www.w3.org/1999/xlink" width="24" height="24"><defs><path id="686ia" d="M682 529.43c0 .15-.12.3-.23.42l-3.28 3.12.78 4.41v.18c0 .23-.1.44-.36.44a.74.74 0 0 1-.36-.1l-4.05-2.09-4.05 2.08a.77.77 0 0 1-.36.11c-.26 0-.38-.21-.38-.44l.02-.18.78-4.4-3.28-3.13c-.11-.12-.23-.27-.23-.42 0-.27.28-.38.5-.41l4.53-.64 2.03-4.02c.08-.17.23-.36.44-.36.2 0 .36.2.44.36l2.03 4.02 4.53.64c.21.03.5.14.5.4z"/><path id="686ib" d="M663 532a12 12 0 1 1 24 0 12 12 0 0 1-24 0z"/><mask id="686id" width="2" height="2" x="-1" y="-1"><path fill="#fff" d="M667 524h15v14h-15z"/><use xlink:href="#686ia"/></mask><filter id="686ic" width="37" height="37" x="656" y="513" filterUnits="userSpaceOnUse"><feOffset dy="1" in="SourceGraphic" result="FeOffset1030Out"/><feGaussianBlur in="FeOffset1030Out" result="FeGaussianBlur1031Out" stdDeviation="0.4 0.4"/></filter><linearGradient id="686ie" x1="674.5" x2="674.5" y1="538" y2="524" gradientUnits="userSpaceOnUse"><stop offset="0" stop-color="#fff" stop-opacity="0"/><stop offset=".98" stop-color="#fff" stop-opacity=".5"/></linearGradient></defs><use fill="#fff" xlink:href="#686ib" transform="translate(-663 -520)"/><g transform="translate(-663 -520)"><g filter="url(#686ic)"><use fill="none" stroke-opacity=".25" stroke-width="0" mask="url(&quot;#686id&quot;)" xlink:href="#686ia"/><use fill-opacity=".25" xlink:href="#686ia"/></g><use fill="#eb8211" xlink:href="#686ia"/><use fill="url(#686ie)" xlink:href="#686ia"/></g></svg>