<svg width="29" height="26" xmlns="http://www.w3.org/2000/svg"><title>headshots</title><g id="Symbols" fill="none" fill-rule="evenodd"><g id="stats-casual" transform="translate(-858 -106)" fill="#A1BE00"><path d="M882.298 109.108c-.133.38-.668-.455-.668-.455 0-.076.535-1.594.535-1.594s.49.228.534.38c.045.151-.267 1.29-.4 1.67zm2.089.096c-.122.055-.61-.66-.61-.66.062-.11 1.584-1.485 1.584-1.485s.487.385.548.44c.06.055-.061.275-.061.33 0 .055-1.34 1.32-1.461 1.375zm2.569 1.244c.067.112.067.836-.068.892-.135.056-2.299-.056-2.57-.056-.27 0-.54-.278-.54-.278v-.669l2.907-.056s.203.056.27.167zm-2.556.907s1.526 1.397 1.526 1.45c0 .054-.17.323-.17.43 0 .107-.282.269-.282.269l-1.696-1.612s.282-.537.339-.537h.283zm-1.696 1.629l.537-.554s.537 1.247.537 1.455c0 .208-.358.693-.448.693-.09 0-.626-1.594-.626-1.594zm-.114-2.63a.18.18 0 0 1 .008.318l-2.122 1.076a.178.178 0 0 1-.09.023c-.562-.006-5.957-.056-6.017.064-.063.126 1.137 2.343.569 3.737-.57 1.393-.411 1.741-.095 3.515.316 1.773-.316 1.646-1.2 4.813-.885 3.167-1.517 3.167-2.212 3.8-.695.634 0 .57 0 2.09s-3.538 1.964-3.538 1.964c-4.107.253-8.782-4.94-9.161-5.7-.38-.76.568-1.964.568-4.624 0-2.66-2.653-7.79-.379-11.78 2.275-3.99 6.54-3.642 6.54-3.642 4.612-.19 6.95 3.167 6.95 3.167h7.54c.027 0 .054.006.078.018l2.56 1.16zm-7.968 5.154s-.948-.063-1.39.697c-.443.76 0 1.14.442 1.393.442.254.632.254.632-.063s.126-1.583.252-1.71c.127-.127.064-.317.064-.317zm-1.2 7.98c.126-.443-.064-1.076-.127-1.14-.063-.063-.632-.253-1.327-.19 0 0-.948.127-1.327.19-.379.064-1.263.444-1.327.697-.063.254.57.824.632.887.063.063 1.327.633 2.085.507.758-.127 1.264-.507 1.39-.95zm-6.572-7.41c-.063 1.204 2.212 1.33 2.212 1.33s1.769-.126 1.769-1.393-1.896-1.267-1.896-1.267-2.021.127-2.085 1.33zm-.126-3.483c0-.19 1.137-.127 1.264-.317.126-.19-.569-.633-.695-.76-.127-.127.821-.887.884-1.013.063-.127-1.453-1.014-1.58-1.14-.126-.127-.442-1.204-.505-1.204h-.316s-1.137.254-1.263.127c-.127-.127 0-.76-.253-.76s-.505.697-.505.697-.253.126-.38.126c-.126 0-.631-.253-.695-.253-.063 0-.126.443-.126.57 0 .127-.19.507-.253.507h-1.453c-.126 0 0 .19 0 .316 0 .127.316.634.38.887.062.253-.759.57-.885.57-.127 0-.316.253-.316.253.063.317 1.39.254 1.453.254.063 0 .126 1.076.126 1.14 0 .063.316 0 .443 0 .126 0 .316 1.456.442 1.646.126.19.253-.126.569-.38.315-.253.568-.126.695-.063.126.063.82.697.947.697s.758-.95.948-.95c.19 0 .695.126.884.126.19 0 .19-.886.19-1.076z" id="headshots"/></g></g></svg>