<svg width="36" height="36" xmlns="http://www.w3.org/2000/svg"><title>precisao</title><g id="Symbols" fill="none" fill-rule="evenodd"><g id="stats-casual" transform="translate(-702 -175)" fill-rule="nonzero" fill="#A1BE00"><path d="M718.683 175v4.02c-6.696.623-12.047 5.97-12.677 12.663H702v2.634h4.006c.624 6.7 5.977 12.053 12.677 12.677V211h2.634v-4.006c6.7-.624 12.053-5.977 12.677-12.677H738v-2.634h-4.006c-.63-6.694-5.981-12.04-12.677-12.663V175h-2.634zm0 6.668v3.869h2.634v-3.87a11.384 11.384 0 0 1 10.015 10.016h-3.869v2.634h3.883a11.399 11.399 0 0 1-10.029 10.029v-3.883h-2.634v3.883a11.399 11.399 0 0 1-10.03-10.029h3.884v-2.634h-3.87a11.384 11.384 0 0 1 10.016-10.015z" id="precisao"/></g></g></svg>