<svg xmlns="http://www.w3.org/2000/svg" width="231" height="114"><defs><linearGradient id="a" x1="2090.11" x2="2265.86" y1="670" y2="772.11" gradientUnits="userSpaceOnUse"><stop offset="0" stop-color="#ff3e3e"/><stop offset="1" stop-color="#e32222"/></linearGradient></defs><path fill="url(#a)" d="M2237.92 708.94c0-1.9-2.06-2.66-3.58-2.9l-32.02-4.62-14.36-28.82c-.56-1.2-1.66-2.6-3.12-2.6-1.46 0-2.56 1.4-3.12 2.6l-14.36 28.82-32.02 4.62c-1.6.24-3.58 1-3.58 2.9 0 1.14.84 2.22 1.6 3.04l6.4 6.18 20.4 2.94c4.7.78 8.7 3.4 8.7 9.06 0 3.08-1.36 5.3-3.48 7.4l-11.23 10.88-3.05 17.62c-.06.46-.14.84-.14 1.28 0 1.64.84 3.16 2.68 3.16.9 0 1.72-.32 2.56-.76l28.64-14.94 28.64 14.94c.76.44 1.66.76 2.56.76 1.84 0 2.6-1.52 2.6-3.16 0-.44 0-.82-.06-1.28l-3.42-19.73-9.32-9.01c-1.96-2.1-3.18-4.16-3.18-7.16 0-5.66 4.02-8.32 8.84-9.08l18.05-2.6 6.71-6.5c.82-.82 1.66-1.9 1.66-3.04zm-73.7 20.42c0-1.7-1.8-2.36-3.16-2.6l-28.44-4.1-12.74-25.58c-.5-1.06-1.46-2.3-2.76-2.3-1.3 0-2.28 1.24-2.78 2.3l-12.74 25.58-28.42 4.1c-1.42.24-3.18.9-3.18 2.6 0 1 .74 1.96 1.42 2.7l20.6 19.9-4.86 28.1c-.06.4-.12.74-.12 1.12 0 1.48.74 2.82 2.38 2.82.8 0 1.54-.28 2.26-.68l25.44-13.26 25.42 13.26c.68.4 1.48.68 2.26.68 1.64 0 2.32-1.34 2.32-2.82 0-.38 0-.72-.06-1.12l-4.86-28.1 20.56-19.9c.74-.74 1.46-1.7 1.46-2.7zm136.78 0c0-1.7-1.82-2.36-3.18-2.6l-28.42-4.1-12.74-25.58c-.5-1.06-1.48-2.3-2.78-2.3-1.3 0-2.26 1.24-2.76 2.3l-12.74 25.58-28.44 4.1c-1.42.24-3.16.9-3.16 2.6 0 1 .72 1.96 1.4 2.7l20.62 19.9-4.86 28.1c-.06.4-.12.74-.12 1.12 0 1.48.74 2.82 2.38 2.82.78 0 1.52-.28 2.26-.68l25.42-13.26 25.44 13.26c.68.4 1.46.68 2.26.68 1.64 0 2.32-1.34 2.32-2.82 0-.38 0-.72-.06-1.12l-4.86-28.1 20.54-19.9c.74-.74 1.48-1.7 1.48-2.7z" transform="translate(-2070 -670)"/></svg>